<?xml version="1.0" encoding="UTF-8"?>
<!DOCTYPE svg PUBLIC "-//W3C//DTD SVG 1.1//EN" "http://www.w3.org/Graphics/SVG/1.1/DTD/svg11.dtd">
<!-- Creator: CorelDRAW 2019 (64-Bit) -->
<svg xmlns="http://www.w3.org/2000/svg" xml:space="preserve" width="91.4398mm" height="91.4398mm" version="1.1" style="shape-rendering:geometricPrecision; text-rendering:geometricPrecision; image-rendering:optimizeQuality; fill-rule:evenodd; clip-rule:evenodd"
viewBox="0 0 9143.98 9143.98"
 xmlns:xlink="http://www.w3.org/1999/xlink"
 xmlns:xodm="http://www.corel.com/coreldraw/odm/2003">
 <defs>
  <style type="text/css">
   <![CDATA[
    .fil0 {fill:#27356A;fill-rule:nonzero}
   ]]>
  </style>
 </defs>
 <g id="Layer_x0020_1">
  <metadata id="CorelCorpID_0Corel-Layer"/>
  <path class="fil0" d="M7700.54 4433.13c-261.21,-57.11 -349.22,-82.11 -349.22,-164.61 0,-73.3 94.65,-109.81 243.82,-109.81 140.79,0 310.54,59.72 410.8,119.67l101.68 -263.37c-151.39,-62.56 -333.48,-122.65 -573.93,-122.65 -315.32,0 -512.78,184.25 -512.78,409.61 0,225.81 162.37,324.89 483.98,393.11 249.78,53.08 317.27,84.29 317.27,162.08 0,77.34 -100.2,105.99 -235.38,105.99 -174.98,0 -342.96,-57.77 -502.2,-126.22l-95.77 256.34c189.77,88.04 386.85,158.35 621.48,158.35 391.17,0 550.7,-186.7 550.7,-404.83 0,-193.35 -134.37,-342.88 -460.45,-413.66zm-1130.89 -506.51l0 722.69c0,221.73 -129.97,314.97 -289.51,314.97 -159.91,0 -288.83,-92.5 -288.83,-314.97l0 -722.69 -321.96 0 0 724.94c0,464.93 273,600.04 610.79,600.04 337.8,0 611.39,-135.11 611.39,-600.04l0 -724.94 -321.88 0zm-1424.51 1019.99l-453.72 0 0 -254.51 453.72 0c74.81,1.06 135.2,57.05 135.2,126.69 0,70.03 -60.84,127.82 -135.2,127.82zm-453.72 -746.68l445.66 0c61.15,0.74 112.72,47.55 112.72,109.43 0,61.15 -54.11,110.5 -115.32,109.74l-443.06 0 0 -219.17zm710.09 356.23c83.97,-59.33 115.62,-157.29 115.62,-264.49 0,-202.6 -170.49,-365.12 -379.76,-365.12l-757.25 0 0 1293.06 787.05 0 0 0.74c220.75,0 404.98,-170.96 404.98,-379.46 0,-136.3 -81.81,-237.18 -170.64,-284.73zm-1140.74 -202.6c0,-235.69 -161.77,-427.01 -493.58,-427.01l-670.83 0 0 1293.04 310.54 0 0 -1019.68 381.62 0c112.72,0 159.91,69.67 159.91,152.6 0,83.24 -49.41,150.2 -162.07,150.2l-267.18 0 403.8 716.88 319.06 0 -274.5 -468.96c199.32,-62.25 293.23,-213.28 293.23,-397.07zm-1622.72 866.03l321.61 0 0 -1293.33 -321.61 0 0 1293.33zm-745.11 -1292.97l678.51 1293.03 -389.02 0 -417.36 -844.76 -165.36 353.71 176.02 0 138.18 283.23 -445.44 0 -97.57 207.82 -387.89 0 653.12 -1293.03 256.81 0z"/>
 </g>
</svg>
